<svg xmlns="http://www.w3.org/2000/svg" width="69.391" height="81.447" viewBox="0 0 69.391 81.447"><path d="M86.392.08a.187.187,0,0,1,.26-.046l5.783,4.049a.187.187,0,0,1,.046.26l-8.049,11.5a49.305,49.305,0,0,1,6.579,2.6S84.495,29.647,73.442,29.647,54.535,19.2,54.535,19.2a39.663,39.663,0,0,1,6.913-3.3L52.619,5.376a.187.187,0,0,1,.023-.263L58.051.575A.187.187,0,0,1,58.314.6L69.493,13.92a25.964,25.964,0,0,1,2.916-.169,32.155,32.155,0,0,1,4.206.29Zm2.187,30.1c2.949-2.107,7.413-7.6,7.413-7.6s11.4,9.034,11.4,28.19S87.682,81.447,87.682,81.447s-9.417-9.51-11.728-21.565,3.42-25.441,3.42-25.441S85.629,32.284,88.578,30.178Zm-31.765,0c-2.949-2.107-7.413-7.6-7.413-7.6S38,31.607,38,50.763,57.709,81.447,57.709,81.447s9.417-9.51,11.728-21.565-3.42-25.441-3.42-25.441S59.763,32.284,56.813,30.178Z" transform="translate(-38)" fill="rgba(85,73,68,0.5)" fill-rule="evenodd"/></svg>