<svg xmlns="http://www.w3.org/2000/svg" width="71.223" height="81.447" viewBox="0 0 71.223 81.447"><path d="M71.563,40.546a4.345,4.345,0,0,0,1.4-1.826,13.471,13.471,0,0,1,8.463,12.43A13.619,13.619,0,0,1,67.656,64.615a13.909,13.909,0,0,1-8.31-2.728c-.758-.359-1.381-.7-1.891-.985a3.712,3.712,0,0,0-1.635-.679c-.95.131-.674,1-.423,1.8.17.539.329,1.041.083,1.248s-1.088-.576-2.06-1.5C52.1,60.505,50.515,59,49.769,59.45c-.59.358-.017,1.331.684,2.52l.052.088c.3.5.639,1.015.953,1.483.637.95,1.15,1.715.893,1.845-.31.157-2.471-1.3-4.293-3.327-.7-.782-1.384-1.629-2.017-2.416h0c-1.385-1.723-2.539-3.159-3.187-2.989-.779.2-.19,1.812.676,3.359.405.723.881,1.46,1.294,2.1h0c.642.992,1.128,1.744.952,1.837-.238.125-2.335-1.92-3.759-4.5a48,48,0,0,1-2.131-4.591c-.624-1.485-1.088-2.591-1.394-2.7-1.063-.387-1.063,1.78-.637,4.907.056.408.138.836.24,1.272A33.2,33.2,0,0,0,69.95,81.447c18.376,0,33.273-14.57,33.273-32.542,0-17.106-13.494-31.129-30.639-32.442a15.063,15.063,0,0,1,.442-2.4s3.027-7.323,3.187-8.888c.01-.1.023-.217.037-.337C76.438,3.144,76.789,0,74.084,0,72.64,0,71.968,1.075,71.2,2.3h0a14.77,14.77,0,0,1-.977,1.432A90.086,90.086,0,0,1,60.469,13.5c-5.408,4.712-10.713,8.585-13.808,10.843h0C45.254,25.37,44.3,26.064,44.01,26.35c-2.215,2.16-10.158,16.487-10.158,16.487s-2.569,4.6-1.656,5.529,3.115.719,3.115.719S64.89,42.3,67.538,41.764c.713-.144,1.216-.227,1.6-.291A4.87,4.87,0,0,0,71.563,40.546Zm-20.913-8.72a52.314,52.314,0,0,0-4.221,5.111s4.894.3,7.589-2.26S56.1,27.748,56.1,27.748A56.716,56.716,0,0,0,50.649,31.826Z" transform="translate(-32)" fill="rgba(255,255,255,0.35)" fill-rule="evenodd"/></svg>