<svg xmlns="http://www.w3.org/2000/svg" width="81.447" height="81.447" viewBox="0 0 81.447 81.447"><path d="M16.342,64.584,29.406,60.8,40.69,81.427a.039.039,0,0,0,.068,0L52.041,60.8l13.064,3.788a.039.039,0,0,0,.048-.048L61.365,51.73,81.427,40.757a.038.038,0,0,0,0-.068L61.2,29.627l3.954-13.364a.039.039,0,0,0-.048-.048L51.735,20.091,40.757.02a.039.039,0,0,0-.068,0L29.713,20.091,16.342,16.214a.039.039,0,0,0-.048.048l3.954,13.364L.02,40.69a.039.039,0,0,0,0,.068L20.083,51.73,16.294,64.536A.039.039,0,0,0,16.342,64.584ZM26.48,40.864l9.255,5.062L40.8,55.181a.039.039,0,0,0,.068,0l5.062-9.255,9.255-5.062a.039.039,0,0,0,0-.068l-9.255-5.062L40.864,26.48a.039.039,0,0,0-.068,0l-5.062,9.255L26.48,40.8A.039.039,0,0,0,26.48,40.864Z" fill="rgba(85,73,68,0.5)" fill-rule="evenodd"/></svg>