<svg xmlns="http://www.w3.org/2000/svg" width="76.018" height="81.447" viewBox="0 0 76.018 81.447"><path d="M28.332,6.771a8.987,8.987,0,0,1,16.233-2.7h2.627A8.986,8.986,0,0,1,61.88,6.787h2.2a8.989,8.989,0,0,1,13,4.072h5.98a.278.278,0,0,1,.14.038q.41-.037.829-.038a8.984,8.984,0,0,1,8.984,8.984V47.27q0,.246-.013.491c-.541,18.688-17.345,33.686-38,33.686C34.017,81.447,17,65.95,17,46.832A32.929,32.929,0,0,1,27.428,23.014c-.016,9,.136,18.3.836,18.137C30.14,40.724,28.675,12.86,28.332,6.771Z" transform="translate(-17)" fill="rgba(255,255,255,0.35)" fill-rule="evenodd"/></svg>