<svg xmlns="http://www.w3.org/2000/svg" width="61.031" height="81.447" viewBox="0 0 61.031 81.447"><path d="M109.855,62.9c1.006-3.68-.947-11.244-.947-11.244s-1.417,6.162-3.63,8.44a11.694,11.694,0,0,1-7.521,3.644,8.061,8.061,0,0,0,4.579-7.242,8.213,8.213,0,0,0-16.424,0,7.928,7.928,0,0,0,.765,3.408,9.8,9.8,0,0,1-3.283-5.883s-3.168,13.151,5.56,19.337,25.825.869,25.825.869-24.467,17.216-42.6-1.521c-15.618-16.141-4.076-37.391-4.076-37.391a19.479,19.479,0,0,0-.5,4.26A7.638,7.638,0,0,0,68.848,43.6s3.7-7.8,6.581-10.973a55.766,55.766,0,0,1,9.095-7.541,35.747,35.747,0,0,0,5.46-4.375C96.55,13.373,92.524,0,92.524,0s7.4,6.525,9.468,14.953c.788,3.212.281,6.868-.172,10.136-.736,5.306-1.33,9.594,3.984,9.316,8.587-.45,1.125-13.689,1.125-13.689s19.479,10.238,18.024,28.144-21.292,21.977-21.292,21.977S108.849,66.578,109.855,62.9Z" transform="translate(-64)" fill="rgba(85,73,68,0.5)" fill-rule="evenodd"/></svg>