<svg xmlns="http://www.w3.org/2000/svg" width="81.447" height="81.447" viewBox="0 0 81.447 81.447"><path d="M58.692,81.165c-7.347.376-15.758.376-18.616,0C17.78,78.232,0,61.931,0,39.9S18.233,0,40.724,0,81.447,17.862,81.447,39.9A39.3,39.3,0,0,1,71.021,66.556c-1.76,1.919.655,3.264,3.109,4.632,2.407,1.341,4.85,2.7,3.43,4.646C76,77.975,67.511,80.714,58.692,81.165ZM35,34.909a6.364,6.364,0,0,1-12.726,0,6.21,6.21,0,0,1,3.185-5.4,5.61,5.61,0,0,0,5.607,5.4H35Zm19.722-5.4a5.611,5.611,0,0,1-5.607,5.4H45.178a6.364,6.364,0,0,0,12.726,0A6.21,6.21,0,0,0,54.719,29.507Z" fill="rgba(255,255,255,0.35)" fill-rule="evenodd"/></svg>