<svg xmlns="http://www.w3.org/2000/svg" width="81.447" height="71.183" viewBox="0 0 81.447 71.183"><g transform="translate(0 0)"><path d="M283.484,39.042l.258,22.675-19.777,9.494-.244-21.41Z" transform="translate(-221.745 -38.949)" fill="rgba(85,73,68,0.5)" fill-rule="evenodd"/><path d="M305.456,204.49l-19.578,11.2-19.59-11.216,19.58-10.285Z" transform="translate(-224.009 -168.832)" fill="rgba(85,73,68,0.5)" fill-rule="evenodd"/><path d="M45.227,204.49l-19.578,11.2L6.059,204.472l19.58-10.285Z" transform="translate(-6.059 -168.832)" fill="rgba(85,73,68,0.5)" fill-rule="evenodd"/><path d="M124.243,38.475l20.321,10.064-.52,21.932-19.187-9.5Z" transform="translate(-104.99 -38.475)" fill="rgba(85,73,68,0.5)" fill-rule="evenodd"/><path d="M284.013,310.3l-20.321-10.064.52-21.932,19.187,9.5Z" transform="translate(-221.722 -239.32)" fill="rgba(85,73,68,0.5)" fill-rule="evenodd"/><path d="M127.207,310.662l-.258-22.675,19.778-9.494.244,21.409Z" transform="translate(-107.255 -239.48)" fill="rgba(85,73,68,0.5)" fill-rule="evenodd"/></g></svg>