<svg xmlns="http://www.w3.org/2000/svg" width="81.447" height="81.447" viewBox="0 0 81.447 81.447"><path d="M68.056,62.589c8.225-6.576,13.391-16.078,13.391-26.645C81.447,16.092,63.215,0,40.724,0S0,16.092,0,35.943C0,46.129,4.8,55.325,12.512,61.865a18.736,18.736,0,0,0-.724,5.2c0,7.94,4.8,14.377,10.717,14.377,3.846,0,7.219-2.718,9.109-6.8,1.891,4.082,5.263,6.8,9.109,6.8,3.506,0,6.618-2.258,8.573-5.75,1.955,3.491,5.068,5.75,8.573,5.75,5.919,0,10.717-6.437,10.717-14.377A18.908,18.908,0,0,0,68.056,62.589ZM64.3,36.656C64.3,46.734,53.5,54.9,40.188,54.9s-24.113-8.17-24.113-18.248,10.8-18.248,24.113-18.248S64.3,26.578,64.3,36.656Z" fill="rgba(255,255,255,0.35)" fill-rule="evenodd"/></svg>