<svg xmlns="http://www.w3.org/2000/svg" width="75.638" height="81.447" viewBox="0 0 75.638 81.447"><path d="M87.671,67.644S77.4,75.882,56.961,72.473C41.454,69.887,33.183,52.793,33.183,43.6c0-21.785,16.124-26.742,27.024-26.742S78.219,27.49,78.219,35.718,72.4,51.143,63.343,51.143,51.6,44.785,51.6,38.94s4.729-7.9,9.043-7.9,5.79,3.682,5.79,6.847-2.456,4.3-4.5,4.3-2.251-1.033-3.035-2.119,1-5.2-1.937-5.2-3.484,4.725-3.484,4.725,1.071,9.121,9.866,8.964S76.311,41.6,75.1,34.865s-7.746-13.886-19.213-12.44S39.737,35.456,41.8,47.837,58.7,67.393,70.36,64.812,93.638,53.787,93.638,32.381,75.1-1.893,52.991.227,17.161,21.675,18.04,44.9s22.913,35.87,41.546,36.521A44.068,44.068,0,0,0,89.642,71.285s2.569-2.291,1.562-4.08S87.671,67.644,87.671,67.644Z" transform="translate(-18)" fill="rgba(85,73,68,0.5)" fill-rule="evenodd"/></svg>