<svg xmlns="http://www.w3.org/2000/svg" width="81.447" height="63.995" viewBox="0 0 81.447 63.995"><path d="M61.886,84.282a.029.029,0,0,1-.005-.022l5.185-30.236A.029.029,0,0,1,67.095,54h1.641a.029.029,0,0,1,.028.02L80.446,91.009a.029.029,0,0,1-.01.032l-8.614,6.725a.029.029,0,0,1-.041-.006ZM-1,104.327a.029.029,0,0,0,.02.028l17.756,5.806a.029.029,0,0,0,.026,0l39.689-27.4a.029.029,0,0,0,.012-.02l4.256-28.558a.029.029,0,0,0-.029-.033H25.575a.029.029,0,0,0-.022.01L-.993,86.181A.029.029,0,0,0-1,86.2Zm25.175,7.312,19.4,6.354a.029.029,0,0,0,.026,0l23.095-16.566a.029.029,0,0,0,.007-.04L58.043,88.5a.029.029,0,0,0-.04-.008Z" transform="translate(1 -54)" fill="rgba(85,73,68,0.5)" fill-rule="evenodd"/></svg>